<?xml version="1.0" encoding="UTF-8" standalone="no"?>
<!-- Generator: Adobe Illustrator 16.0.0, SVG Export Plug-In . SVG Version: 6.00 Build 0)  -->

<svg
   xmlns:dc="http://purl.org/dc/elements/1.1/"
   xmlns:cc="http://creativecommons.org/ns#"
   xmlns:rdf="http://www.w3.org/1999/02/22-rdf-syntax-ns#"
   xmlns:svg="http://www.w3.org/2000/svg"
   xmlns="http://www.w3.org/2000/svg"
   xmlns:sodipodi="http://sodipodi.sourceforge.net/DTD/sodipodi-0.dtd"
   xmlns:inkscape="http://www.inkscape.org/namespaces/inkscape"
   version="1.1"
   id="Layer_1"
   x="0px"
   y="0px"
   width="41px"
   height="41px"
   viewBox="0 0 41 41"
   enable-background="new 0 0 41 41"
   xml:space="preserve"
   sodipodi:docname="icon_3.svg"
   inkscape:version="0.92.3 (2405546, 2018-03-11)"><metadata
   id="metadata9"><rdf:RDF><cc:Work
       rdf:about=""><dc:format>image/svg+xml</dc:format><dc:type
         rdf:resource="http://purl.org/dc/dcmitype/StillImage" /></cc:Work></rdf:RDF></metadata><defs
   id="defs7" /><sodipodi:namedview
   pagecolor="#ffffff"
   bordercolor="#666666"
   borderopacity="1"
   objecttolerance="10"
   gridtolerance="10"
   guidetolerance="10"
   inkscape:pageopacity="0"
   inkscape:pageshadow="2"
   inkscape:window-width="1920"
   inkscape:window-height="986"
   id="namedview5"
   showgrid="false"
   inkscape:zoom="11.512195"
   inkscape:cx="17.904017"
   inkscape:cy="14.144241"
   inkscape:window-x="-11"
   inkscape:window-y="-11"
   inkscape:window-maximized="1"
   inkscape:current-layer="Layer_1" />

<g
   id="g907"><path
     inkscape:connector-curvature="0"
     id="path828"
     d="M 13.462046,0.61386058 29.063339,0.85955023 34.529933,8.5987741 21.44696,21.98886 7.9954517,8.8444637 Z"
     style="fill:none;stroke:#d4aa00;stroke-width:1px;stroke-linecap:butt;stroke-linejoin:miter;stroke-opacity:0.99215686" /><path
     sodipodi:nodetypes="cccccc"
     inkscape:connector-curvature="0"
     id="path830"
     d="M 13.400624,1.2895072 21.44696,20.821834 29.063339,1.5966191 33.915709,8.7216189 8.9782103,8.8444637 Z"
     style="fill:none;stroke:#d4aa00;stroke-width:1px;stroke-linecap:butt;stroke-linejoin:miter;stroke-opacity:0.99215686" /><path
     sodipodi:nodetypes="cccc"
     inkscape:connector-curvature="0"
     id="path832"
     d="m 21.262693,1.412352 -4.790949,7.3092669 9.704741,-0.061422 z"
     style="fill:none;stroke:#d4aa00;stroke-width:1px;stroke-linecap:butt;stroke-linejoin:miter;stroke-opacity:0.99215686" /><g
     style="stroke:#d4aa00;stroke-opacity:0.99215686"
     transform="translate(0.56334,0.27549675)"
     id="g866"><path
       style="fill:none;stroke:#d4aa00;stroke-width:1px;stroke-linecap:butt;stroke-linejoin:miter;stroke-opacity:0.99215686"
       d="m 16.244045,40.150625 0.217161,-9.653857 2.948276,-4.606681 -0.614224,-1.412716 -1.965517,-0.122844 -2.764009,4.176724 -2.272629,0.06142 V 22.880389 L 10.748922,22.14332 9.5818961,22.941811 9.4590513,20.853449 8.1691807,19.809268 7.3092669,20.239225 6.572198,21.037716 v 0.675647 L 6.5107756,22.696121 5.8965515,22.020475 5.0980601,21.529096 4.5452584,21.590518 3.8696119,21.89763 3.3782326,22.818966 3.3168102,23.863147 2.8868533,23.126078 H 2.2112068 1.4741379 l -0.2456897,0.614224 -0.061422,2.02694 0.1842672,5.712284 5.5894395,1.289871 2.2726292,1.412715 0.061422,3.009699 -0.014904,2.9619 2.9811699,0.0075 z"
       id="path834"
       inkscape:connector-curvature="0"
       sodipodi:nodetypes="cccccccccccccccccccccccccccccccccc" /><path
       style="fill:none;stroke:#d4aa00;stroke-width:1px;stroke-linecap:butt;stroke-linejoin:miter;stroke-opacity:0.99215686"
       d="m 3.5624998,25.21444 0.1228449,3.378233 8.1077583,-2e-6 V 22.880389 L 10.748922,22.14332 9.5818961,22.941811 9.4590513,28.531251 6.3879308,28.592673 6.5107756,22.696121 5.0980601,21.529096 3.8696119,21.89763 3.3168102,23.863147 Z"
       id="path836"
       inkscape:connector-curvature="0"
       sodipodi:nodetypes="ccccccccccccc" /><path
       style="fill:none;stroke:#d4aa00;stroke-width:1px;stroke-linecap:butt;stroke-linejoin:miter;stroke-opacity:0.99215686"
       d="m 24.507542,36.946121 0.166277,3.179062 6.644158,-0.0075 0.253142,-5.321395 2.211207,-2.764008 5.896552,-0.491379 0.368534,-7.186422 L 39.310343,23.61741 37.71336,23.801677 37.160559,22.081849 36.1778,21.529048 35.256464,21.83616 34.64224,22.143272 34.58082,20.423444 33.843752,19.80922 32.676726,19.7478 31.816812,20.546291 v 0.982759 l -0.184267,0.798491 -0.921336,-0.491379 h -0.614225 l -0.614224,0.184267 -0.122844,1.167026 -0.184268,1.719827 0.184268,2.149785 v 1.228448 l -2.641164,0.184267 -0.184267,-2.026939 -2.764009,-2.334052 -1.53556,0.982759 -0.552802,0.491379 -0.122845,1.596982 1.965517,2.579742 0.368535,0.982758 0.614224,4.053879 z"
       id="path838"
       inkscape:connector-curvature="0"
       sodipodi:nodetypes="cccccccccccccccccccccccccccccccccccc" /><g
       style="stroke:#d4aa00;stroke-opacity:0.99215686"
       id="g843"><path
         inkscape:connector-curvature="0"
         id="path840"
         d="m 29.359916,28.285563 8.2306,0.491377 0.122844,-4.975215 -0.552801,-1.719828 -0.982759,-0.552801 -1.53556,0.614224 v 5.835129 l 0.06142,0.491379 h -2.641163 l -0.429954,-6.142239 -1.535561,-0.491379 -0.614227,1.105601 z"
         style="fill:none;stroke:#d4aa00;stroke-width:1px;stroke-linecap:butt;stroke-linejoin:miter;stroke-opacity:0.99215686"
         sodipodi:nodetypes="ccccccccccccc" /></g></g></g></svg>