<?xml version="1.0" encoding="UTF-8" standalone="no"?>
<!-- Generator: Adobe Illustrator 16.0.0, SVG Export Plug-In . SVG Version: 6.00 Build 0)  -->

<svg
   xmlns:dc="http://purl.org/dc/elements/1.1/"
   xmlns:cc="http://creativecommons.org/ns#"
   xmlns:rdf="http://www.w3.org/1999/02/22-rdf-syntax-ns#"
   xmlns:svg="http://www.w3.org/2000/svg"
   xmlns="http://www.w3.org/2000/svg"
   xmlns:sodipodi="http://sodipodi.sourceforge.net/DTD/sodipodi-0.dtd"
   xmlns:inkscape="http://www.inkscape.org/namespaces/inkscape"
   version="1.1"
   id="Layer_1"
   x="0px"
   y="0px"
   width="41px"
   height="29px"
   viewBox="0 0 41 29"
   enable-background="new 0 0 41 29"
   xml:space="preserve"
   sodipodi:docname="icon_1.svg"
   inkscape:version="0.92.3 (2405546, 2018-03-11)"><metadata
   id="metadata87"><rdf:RDF><cc:Work
       rdf:about=""><dc:format>image/svg+xml</dc:format><dc:type
         rdf:resource="http://purl.org/dc/dcmitype/StillImage" /></cc:Work></rdf:RDF></metadata><defs
   id="defs85" /><sodipodi:namedview
   pagecolor="#ffffff"
   bordercolor="#666666"
   borderopacity="1"
   objecttolerance="10"
   gridtolerance="10"
   guidetolerance="10"
   inkscape:pageopacity="0"
   inkscape:pageshadow="2"
   inkscape:window-width="1920"
   inkscape:window-height="986"
   id="namedview83"
   showgrid="false"
   inkscape:zoom="8.137931"
   inkscape:cx="20.5"
   inkscape:cy="14.5"
   inkscape:window-x="-11"
   inkscape:window-y="-11"
   inkscape:window-maximized="1"
   inkscape:current-layer="Layer_1" />
<g
   id="g80"
   style="fill:#d4aa00">
	<g
   id="g6"
   style="fill:#d4aa00">
		<g
   id="g4"
   style="fill:#d4aa00">
			<path
   fill="#EF4823"
   d="M32.646,4.902h-0.567c0.392-0.514,0.626-1.155,0.626-1.849c0-0.695-0.234-1.335-0.626-1.849h0.567     c0.333,0,0.603-0.269,0.603-0.602S32.979,0,32.646,0H29.65H10.754H7.388C7.055,0,6.786,0.269,6.786,0.602     s0.269,0.602,0.602,0.602h0.939C7.935,1.718,7.701,2.358,7.701,3.053c0,0.694,0.234,1.335,0.626,1.849H7.388     c-0.333,0-0.602,0.27-0.602,0.602c0,0.333,0.269,0.602,0.602,0.602h3.366h1.982h4.414v3.062c0,0.333,0.269,0.602,0.602,0.602     c0.333,0,0.603-0.269,0.603-0.602V5.504c0-0.333-0.27-0.602-0.603-0.602h-5.015h-1.982c-1.02,0-1.849-0.83-1.849-1.849     c0-1.02,0.83-1.849,1.849-1.849H29.65c1.021,0,1.851,0.829,1.851,1.849c0,1.02-0.83,1.849-1.851,1.849h-2.935h-4.063     c-0.331,0-0.601,0.27-0.601,0.602v11.399v1.952c0,1.02-0.83,1.849-1.851,1.849c-1.019,0-1.848-0.829-1.848-1.849v-1.952v-4.951     c0-0.333-0.27-0.602-0.603-0.602c-0.332,0-0.602,0.269-0.602,0.602v4.951v1.952v3.069c0,0.332,0.27,0.602,0.602,0.602     c0.333,0,0.603-0.27,0.603-0.602v-0.643c0.513,0.393,1.155,0.626,1.848,0.626c0.695,0,1.337-0.233,1.851-0.626v0.643     c0,0.332,0.27,0.602,0.601,0.602c0.333,0,0.603-0.27,0.603-0.602v-3.069v-1.952V6.106h3.46h2.935h2.996     c0.333,0,0.603-0.269,0.603-0.602C33.249,5.172,32.979,4.902,32.646,4.902z"
   id="path2"
   style="fill:#d4aa00" />
		</g>
	</g>
	<g
   id="g12"
   style="fill:#d4aa00">
		<g
   id="g10"
   style="fill:#d4aa00">
			<path
   fill="#EF4823"
   d="M36.229,0H35.01c-0.333,0-0.603,0.269-0.603,0.602s0.27,0.602,0.603,0.602h1.219     c0.333,0,0.603-0.269,0.603-0.602S36.562,0,36.229,0z"
   id="path8"
   style="fill:#d4aa00" />
		</g>
	</g>
	<g
   id="g18"
   style="fill:#d4aa00">
		<g
   id="g16"
   style="fill:#d4aa00">
			<path
   fill="#EF4823"
   d="M36.229,4.902H35.01c-0.333,0-0.603,0.27-0.603,0.602c0,0.333,0.27,0.602,0.603,0.602h1.219     c0.333,0,0.603-0.269,0.603-0.602C36.831,5.172,36.562,4.902,36.229,4.902z"
   id="path14"
   style="fill:#d4aa00" />
		</g>
	</g>
	<g
   id="g24"
   style="fill:#d4aa00">
		<g
   id="g22"
   style="fill:#d4aa00">
			<path
   fill="#EF4823"
   d="M39.521,0h-1.22c-0.332,0-0.603,0.269-0.603,0.602s0.271,0.602,0.603,0.602h1.22     c0.332,0,0.603-0.269,0.603-0.602S39.853,0,39.521,0z"
   id="path20"
   style="fill:#d4aa00" />
		</g>
	</g>
	<g
   id="g30"
   style="fill:#d4aa00">
		<g
   id="g28"
   style="fill:#d4aa00">
			<path
   fill="#EF4823"
   d="M39.521,4.902h-1.22c-0.332,0-0.603,0.27-0.603,0.602c0,0.333,0.271,0.602,0.603,0.602h1.22     c0.332,0,0.603-0.269,0.603-0.602C40.123,5.172,39.853,4.902,39.521,4.902z"
   id="path26"
   style="fill:#d4aa00" />
		</g>
	</g>
	<g
   id="g36"
   style="fill:#d4aa00">
		<g
   id="g34"
   style="fill:#d4aa00">
			<path
   fill="#EF4823"
   d="M5.032,0h-1.22C3.48,0,3.21,0.269,3.21,0.602s0.27,0.602,0.602,0.602h1.22     c0.333,0,0.603-0.269,0.603-0.602S5.365,0,5.032,0z"
   id="path32"
   style="fill:#d4aa00" />
		</g>
	</g>
	<g
   id="g42"
   style="fill:#d4aa00">
		<g
   id="g40"
   style="fill:#d4aa00">
			<path
   fill="#EF4823"
   d="M5.032,4.902h-1.22c-0.332,0-0.602,0.27-0.602,0.602c0,0.333,0.27,0.602,0.602,0.602h1.22     c0.333,0,0.603-0.269,0.603-0.602C5.635,5.172,5.365,4.902,5.032,4.902z"
   id="path38"
   style="fill:#d4aa00" />
		</g>
	</g>
	<g
   id="g48"
   style="fill:#d4aa00">
		<g
   id="g46"
   style="fill:#d4aa00">
			<path
   fill="#EF4823"
   d="M1.821,0h-1.22C0.27,0,0,0.269,0,0.602s0.27,0.602,0.602,0.602h1.22c0.333,0,0.603-0.269,0.603-0.602     S2.154,0,1.821,0z"
   id="path44"
   style="fill:#d4aa00" />
		</g>
	</g>
	<g
   id="g54"
   style="fill:#d4aa00">
		<g
   id="g52"
   style="fill:#d4aa00">
			<path
   fill="#EF4823"
   d="M1.821,4.902h-1.22C0.27,4.902,0,5.172,0,5.504c0,0.333,0.27,0.602,0.602,0.602h1.22     c0.333,0,0.603-0.269,0.603-0.602C2.424,5.172,2.154,4.902,1.821,4.902z"
   id="path50"
   style="fill:#d4aa00" />
		</g>
	</g>
	<g
   id="g60"
   style="fill:#d4aa00">
		<g
   id="g58"
   style="fill:#d4aa00">
			<path
   fill="#EF4823"
   d="M22.653,23.112c-0.331,0-0.601,0.269-0.601,0.602v1.354c0,0.333,0.27,0.603,0.601,0.603     c0.333,0,0.603-0.27,0.603-0.603v-1.354C23.256,23.381,22.986,23.112,22.653,23.112z"
   id="path56"
   style="fill:#d4aa00" />
		</g>
	</g>
	<g
   id="g66"
   style="fill:#d4aa00">
		<g
   id="g64"
   style="fill:#d4aa00">
			<path
   fill="#EF4823"
   d="M17.751,23.112c-0.333,0-0.602,0.269-0.602,0.602v1.354c0,0.333,0.269,0.603,0.602,0.603     c0.333,0,0.603-0.27,0.603-0.603v-1.354C18.354,23.381,18.084,23.112,17.751,23.112z"
   id="path62"
   style="fill:#d4aa00" />
		</g>
	</g>
	<g
   id="g72"
   style="fill:#d4aa00">
		<g
   id="g70"
   style="fill:#d4aa00">
			<path
   fill="#EF4823"
   d="M22.653,26.322c-0.331,0-0.601,0.271-0.601,0.604v1.354c0,0.332,0.27,0.602,0.601,0.602     c0.333,0,0.603-0.27,0.603-0.602v-1.354C23.256,26.593,22.986,26.322,22.653,26.322z"
   id="path68"
   style="fill:#d4aa00" />
		</g>
	</g>
	<g
   id="g78"
   style="fill:#d4aa00">
		<g
   id="g76"
   style="fill:#d4aa00">
			<path
   fill="#EF4823"
   d="M17.751,26.322c-0.333,0-0.602,0.271-0.602,0.604v1.354c0,0.332,0.269,0.602,0.602,0.602     c0.333,0,0.603-0.27,0.603-0.602v-1.354C18.354,26.593,18.084,26.322,17.751,26.322z"
   id="path74"
   style="fill:#d4aa00" />
		</g>
	</g>
</g>
</svg>