<?xml version="1.0" encoding="UTF-8" standalone="no"?>
<!-- Generator: Adobe Illustrator 16.0.0, SVG Export Plug-In . SVG Version: 6.00 Build 0)  -->

<svg
   xmlns:dc="http://purl.org/dc/elements/1.1/"
   xmlns:cc="http://creativecommons.org/ns#"
   xmlns:rdf="http://www.w3.org/1999/02/22-rdf-syntax-ns#"
   xmlns:svg="http://www.w3.org/2000/svg"
   xmlns="http://www.w3.org/2000/svg"
   xmlns:sodipodi="http://sodipodi.sourceforge.net/DTD/sodipodi-0.dtd"
   xmlns:inkscape="http://www.inkscape.org/namespaces/inkscape"
   version="1.1"
   id="Layer_1"
   x="0px"
   y="0px"
   width="39px"
   height="41px"
   viewBox="0 0 39 41"
   enable-background="new 0 0 39 41"
   xml:space="preserve"
   sodipodi:docname="icon_2.svg"
   inkscape:version="0.92.3 (2405546, 2018-03-11)"><metadata
   id="metadata57"><rdf:RDF><cc:Work
       rdf:about=""><dc:format>image/svg+xml</dc:format><dc:type
         rdf:resource="http://purl.org/dc/dcmitype/StillImage" /></cc:Work></rdf:RDF></metadata><defs
   id="defs55">
	
	
	
	
	
	
	
	
</defs><sodipodi:namedview
   pagecolor="#ffffff"
   bordercolor="#666666"
   borderopacity="1"
   objecttolerance="10"
   gridtolerance="10"
   guidetolerance="10"
   inkscape:pageopacity="0"
   inkscape:pageshadow="2"
   inkscape:window-width="1920"
   inkscape:window-height="986"
   id="namedview53"
   showgrid="false"
   inkscape:zoom="5.7560976"
   inkscape:cx="19.5"
   inkscape:cy="20.5"
   inkscape:window-x="-11"
   inkscape:window-y="-11"
   inkscape:window-maximized="1"
   inkscape:current-layer="Layer_1" />
<g
   id="g909"><g
     id="g6"
     style="fill:#d4aa00">
		<g
   id="g4"
   style="fill:#d4aa00">
			<path
   d="M 30.713,10.516 C 28.88,8.664 26.444,7.582 23.856,7.47 23.527,7.456 23.248,7.714 23.233,8.048 c -0.014,0.334 0.242,0.615 0.572,0.629 2.289,0.101 4.441,1.057 6.063,2.693 3.404,3.438 3.553,8.94 0.445,12.559 L 17.432,10.919 c 1.193,-1.045 2.624,-1.756 4.177,-2.07 0.323,-0.065 0.534,-0.384 0.47,-0.711 -0.065,-0.327 -0.381,-0.54 -0.705,-0.475 -1.998,0.405 -3.819,1.392 -5.266,2.853 -0.021,0.021 -0.039,0.042 -0.055,0.064 l -4.783,3.743 -9.473,7.233 c -0.127,0.098 -0.21,0.24 -0.232,0.398 -0.022,0.16 0.02,0.32 0.115,0.449 l 1.331,1.777 c 0.118,0.158 0.297,0.24 0.478,0.24 0.125,0 0.252,-0.041 0.36,-0.123 L 9.85,19.714 c 0.264,-0.201 0.316,-0.58 0.116,-0.846 C 9.767,18.601 9.392,18.549 9.128,18.75 l -5.524,4.218 -0.61,-0.814 8.581,-6.553 1.533,1.549 c -0.002,0.012 -0.003,0.023 -0.004,0.036 -0.151,2.267 0.438,4.535 1.664,6.421 l -5.677,5.732 c -0.233,0.236 -0.233,0.619 0,0.855 l 1.562,1.576 c 0.116,0.119 0.27,0.178 0.422,0.178 0.154,0 0.307,-0.059 0.424,-0.178 l 5.58,-5.637 c 1.813,1.426 4.017,2.188 6.316,2.188 0.236,0 0.474,-0.008 0.711,-0.023 0.013,-0.002 0.024,-0.004 0.035,-0.004 l 1.637,1.652 -6.434,8.723 -0.804,-0.613 4.177,-5.58 c 0.199,-0.266 0.148,-0.645 -0.116,-0.846 -0.264,-0.201 -0.638,-0.15 -0.838,0.117 l -4.538,6.063 c -0.199,0.266 -0.146,0.645 0.117,0.846 L 19.103,40 c 0.104,0.08 0.231,0.123 0.36,0.123 0.028,0 0.057,-0.002 0.084,-0.006 0.158,-0.023 0.301,-0.109 0.396,-0.238 l 6.91,-9.371 c 0.102,-0.041 0.191,-0.111 0.257,-0.203 l 3.679,-5.119 c 3.95,-4.071 3.924,-10.629 -0.076,-14.67 z m -16.422,7.83 2.845,2.873 -1.499,1.514 c -0.806,-1.321 -1.27,-2.835 -1.346,-4.387 z m -3.215,12.146 -0.714,-0.723 7.62,-7.695 0.715,0.721 z m 6.858,-5.217 1.609,-1.625 3.422,3.455 c -1.826,-0.085 -3.568,-0.718 -5.031,-1.83 z m 8.567,3.694 -13.96,-14.101 4.047,-3.091 12.947,13.077 z"
   id="path2"
   style="fill:#d4aa00"
   inkscape:connector-curvature="0" />
		</g>
	</g><g
     id="g12"
     style="fill:#d4aa00">
		<g
   id="g10"
   style="fill:#d4aa00">
			<path
   d="m 25.447,0.655 c -0.863,-0.873 -2.27,-0.873 -3.135,0 -0.863,0.873 -0.863,2.293 0,3.166 0.433,0.437 1,0.654 1.568,0.654 0.567,0 1.135,-0.218 1.566,-0.654 0.867,-0.873 0.867,-2.293 10e-4,-3.166 z m -0.845,2.311 c -0.398,0.402 -1.045,0.402 -1.442,0 -0.397,-0.401 -0.397,-1.055 0,-1.457 0.198,-0.201 0.46,-0.301 0.722,-0.301 0.261,0 0.521,0.1 0.721,0.301 C 25,1.912 25,2.565 24.602,2.966 Z"
   id="path8"
   style="fill:#d4aa00"
   inkscape:connector-curvature="0" />
		</g>
	</g><g
     id="g18"
     style="fill:#d4aa00">
		<g
   id="g16"
   style="fill:#d4aa00">
			<path
   d="m 33.03,31.119 c -0.419,-0.424 -0.976,-0.656 -1.567,-0.656 -0.591,0 -1.148,0.232 -1.567,0.656 -0.864,0.873 -0.864,2.293 0,3.166 0.419,0.424 0.976,0.656 1.567,0.656 0.591,0 1.148,-0.232 1.567,-0.656 0.865,-0.873 0.865,-2.293 0,-3.166 z m -0.845,2.313 c -0.193,0.193 -0.449,0.301 -0.722,0.301 -0.273,0 -0.529,-0.107 -0.721,-0.301 -0.398,-0.402 -0.398,-1.057 0,-1.457 0.198,-0.201 0.459,-0.303 0.721,-0.303 0.262,0 0.522,0.102 0.722,0.303 0.397,0.4 0.397,1.054 0,1.457 z"
   id="path14"
   style="fill:#d4aa00"
   inkscape:connector-curvature="0" />
		</g>
	</g><g
     id="g24"
     style="fill:#d4aa00">
		<g
   id="g22"
   style="fill:#d4aa00">
			<path
   d="m 38.352,21.951 c -0.419,-0.422 -0.976,-0.654 -1.568,-0.654 -0.592,0 -1.148,0.232 -1.566,0.654 -0.42,0.424 -0.65,0.984 -0.65,1.584 0,0.598 0.231,1.16 0.65,1.584 0.418,0.422 0.975,0.654 1.566,0.654 0.593,0 1.149,-0.232 1.568,-0.654 C 38.77,24.695 39,24.133 39,23.535 c 0,-0.599 -0.23,-1.16 -0.648,-1.584 z m -0.847,2.313 c -0.192,0.195 -0.448,0.301 -0.722,0.301 -0.271,0 -0.527,-0.105 -0.721,-0.301 -0.194,-0.196 -0.299,-0.453 -0.299,-0.729 0,-0.276 0.105,-0.533 0.299,-0.73 0.193,-0.193 0.449,-0.301 0.721,-0.301 0.273,0 0.529,0.107 0.722,0.301 0.397,0.402 0.397,1.056 0,1.459 z"
   id="path20"
   style="fill:#d4aa00"
   inkscape:connector-curvature="0" />
		</g>
	</g><g
     id="g36"
     style="fill:#d4aa00">
		<g
   id="g34"
   style="fill:#d4aa00">
			<path
   d="m 7.699,25.668 c -0.234,-0.236 -0.612,-0.236 -0.846,0 l -4.347,4.391 c -0.233,0.236 -0.233,0.619 0,0.855 0.117,0.117 0.27,0.176 0.423,0.176 0.153,0 0.306,-0.059 0.423,-0.176 l 4.347,-4.391 c 0.234,-0.236 0.234,-0.619 0,-0.855 z"
   id="path32"
   style="fill:#d4aa00"
   inkscape:connector-curvature="0" />
		</g>
	</g><g
     id="g42"
     style="fill:#d4aa00">
		<g
   id="g40"
   style="fill:#d4aa00">
			<path
   d="m 15.18,33.225 c -0.232,-0.236 -0.612,-0.236 -0.846,0 l -6.093,6.154 c -0.233,0.236 -0.233,0.619 0,0.855 0.117,0.117 0.27,0.176 0.423,0.176 0.153,0 0.306,-0.059 0.423,-0.176 l 6.093,-6.156 c 0.234,-0.234 0.234,-0.617 0,-0.853 z"
   id="path38"
   style="fill:#d4aa00"
   inkscape:connector-curvature="0" />
		</g>
	</g><g
     id="g48"
     style="fill:#d4aa00">
		<g
   id="g46"
   style="fill:#d4aa00">
			<path
   d="m 8.11,32.809 c -0.233,-0.236 -0.612,-0.236 -0.846,0 l -7.089,7.16 c -0.234,0.236 -0.234,0.619 0,0.855 C 0.293,40.941 0.445,41 0.599,41 0.753,41 0.906,40.941 1.022,40.824 l 7.089,-7.16 C 8.344,33.428 8.344,33.045 8.11,32.809 Z"
   id="path44"
   style="fill:#d4aa00"
   inkscape:connector-curvature="0" />
		</g>
	</g></g>
</svg>