<?xml version="1.0" encoding="UTF-8" standalone="no"?>
<!-- Created with Inkscape (http://www.inkscape.org/) -->

<svg
   xmlns:dc="http://purl.org/dc/elements/1.1/"
   xmlns:cc="http://creativecommons.org/ns#"
   xmlns:rdf="http://www.w3.org/1999/02/22-rdf-syntax-ns#"
   xmlns:svg="http://www.w3.org/2000/svg"
   xmlns="http://www.w3.org/2000/svg"
   xmlns:sodipodi="http://sodipodi.sourceforge.net/DTD/sodipodi-0.dtd"
   xmlns:inkscape="http://www.inkscape.org/namespaces/inkscape"
   version="1.1"
   id="svg2"
   xml:space="preserve"
   width="1333.3333"
   height="933.33331"
   viewBox="0 0 1333.3333 933.33331"
   sodipodi:docname="redarrow.svg"
   inkscape:version="0.92.3 (2405546, 2018-03-11)"><metadata
     id="metadata8"><rdf:RDF><cc:Work
         rdf:about=""><dc:format>image/svg+xml</dc:format><dc:type
           rdf:resource="http://purl.org/dc/dcmitype/StillImage" /><dc:title></dc:title></cc:Work></rdf:RDF></metadata><defs
     id="defs6" /><sodipodi:namedview
     pagecolor="#ffffff"
     bordercolor="#666666"
     borderopacity="1"
     objecttolerance="10"
     gridtolerance="10"
     guidetolerance="10"
     inkscape:pageopacity="0"
     inkscape:pageshadow="2"
     inkscape:window-width="1920"
     inkscape:window-height="986"
     id="namedview4"
     showgrid="false"
     inkscape:zoom="0.35759401"
     inkscape:cx="690.96214"
     inkscape:cy="982.10968"
     inkscape:window-x="-11"
     inkscape:window-y="-11"
     inkscape:window-maximized="1"
     inkscape:current-layer="g12" /><g
     id="g10"
     inkscape:groupmode="layer"
     inkscape:label="ink_ext_XXXXXX"
     transform="matrix(1.3333333,0,0,-1.3333333,0,933.33333)"><g
       id="g12"
       transform="scale(0.1)"><path
         d="M 10000,0 H 0 V 7000 H 10000 V 0"
         style="fill:#201d1d;fill-opacity:1;fill-rule:nonzero;stroke:none"
         id="path14"
         inkscape:connector-curvature="0" /><path
         d="M 4810,7000 H 3010 L 7120,3500 6358.66,2851.67 6240,2600 5530,2010 5271.25,1940.26 3010,0 h 1780 l 1400,1190 235.63,75.13 L 9050,3500 8208.36,4216.73 7920,4340 7300,4870 7149.04,5120.83 5555.34,6475.98 5350,6540 4810,7000"
         style="fill:#3b393d;fill-opacity:1;fill-rule:nonzero;stroke:none"
         id="path16"
         inkscape:connector-curvature="0" /><path
         d="M 4760,7000 H 2960 L 7070,3500 6308.66,2851.67 6190,2600 5480,2010 5221.25,1940.26 2960,0 h 1780 l 1400,1190 235.63,75.13 L 9000,3500 8158.36,4216.73 7870,4340 7250,4870 7099.04,5120.83 5505.34,6475.98 5300,6540 4760,7000"
         style="fill:#100f0d;fill-opacity:1;fill-rule:nonzero;stroke:none"
         id="path18"
         inkscape:connector-curvature="0" /><path
         d="M 4560,0 H 4460 L 8570,3500 7808.66,4148.33 7690,4400 6436.49,5467.46 6177.74,5537.2 4460,7000 h 80 L 5940,5810 6175.63,5734.87 8800,3500 7958.36,2783.27 7670,2660 6066.32,1294.33 5915.36,1043.5 5305.34,524.02 5100,460 4560,0"
         style="fill:#ec1d27;fill-opacity:1;fill-rule:nonzero;stroke:none"
         id="path20"
         inkscape:connector-curvature="0" /><path
         d="M 5100,0 H 5000 L 9110,3500 8348.66,4148.33 8230,4400 6976.49,5467.46 6717.74,5537.2 5000,7000 h 80 L 6480,5810 6715.63,5734.87 9340,3500 8498.36,2783.27 8210,2660 6606.32,1294.33 6455.36,1043.5 5845.34,524.02 5640,460 5100,0"
         style="fill:#3b393d;fill-opacity:1;fill-rule:nonzero;stroke:none"
         id="path22"
         inkscape:connector-curvature="0" /><path
         d="M 4230,7000 H 4130 L 8240,3500 7478.66,2851.67 7360,2600 6650,2010 6391.25,1940.26 4130,0 h 80 l 1400,1190 235.63,75.13 L 8470,3500 7628.36,4216.73 7340,4340 6720,4870 6569.04,5120.83 4975.34,6475.98 4770,6540 4230,7000"
         style="fill:#741519;fill-opacity:1;fill-rule:nonzero;stroke:none"
         id="path24"
         inkscape:connector-curvature="0" /><path
         d="M 2780,7000 H 2680 L 6790,3500 6028.66,2851.67 5910,2600 5200,2010 4941.25,1940.26 2680,0 h 80 l 1400,1190 235.63,75.13 L 7020,3500 6178.36,4216.73 5890,4340 5270,4870 5119.04,5120.83 3525.34,6475.98 3320,6540 2780,7000"
         style="fill:#100f0d;fill-opacity:1;fill-rule:nonzero;stroke:none"
         id="path26"
         inkscape:connector-curvature="0" /><path
         d="M 3920,7000 H 3270 L 7380,3500 6618.66,2851.67 6500,2600 5790,2010 5531.25,1940.26 3270,0 h 630 l 1400,1190 235.63,75.13 L 8160,3500 7318.36,4216.73 7030,4340 6410,4870 6259.04,5120.83 4665.34,6475.98 4460,6540 3920,7000"
         style="fill:#ec1d27;fill-opacity:1;fill-rule:nonzero;stroke:none"
         id="path28"
         inkscape:connector-curvature="0" /><path
         d="M 3845,7000 H 3195 L 7305,3500 6543.66,2851.67 6425,2600 5715,2010 5456.25,1940.26 3195,0 h 630 l 1400,1190 235.63,75.13 L 8085,3500 7243.36,4216.73 6955,4340 6335,4870 6184.04,5120.83 4590.34,6475.98 4385,6540 3845,7000"
         style="fill:#b21d23;fill-opacity:1;fill-rule:nonzero;stroke:none"
         id="path30"
         inkscape:connector-curvature="0" /><path
         d="M 3610,0 H 3510 L 7620,3500 6858.66,4148.33 6740,4400 5486.49,5467.46 5227.74,5537.2 3510,7000 h 80 L 4990,5810 5225.63,5734.87 7850,3500 7008.36,2783.27 6720,2660 5116.32,1294.33 4965.36,1043.5 4355.34,524.02 4150,460 3610,0"
         style="fill:#741519;fill-opacity:1;fill-rule:nonzero;stroke:none"
         id="path32"
         inkscape:connector-curvature="0" /><path
         d="m 2460.07,0 h -100 l 4110,3500 -761.34,648.33 L 5590.07,4400 4336.56,5467.46 4077.81,5537.2 2360.07,7000 h 80 l 1400,-1190 235.62,-75.13 L 6700.07,3500 5858.43,2783.27 5570.07,2660 3966.39,1294.33 3815.43,1043.5 3205.41,524.02 3000.07,460 2460.07,0"
         style="fill:#3b393d;fill-opacity:1;fill-rule:nonzero;stroke:none"
         id="path34"
         inkscape:connector-curvature="0" /></g></g></svg>