<?xml version="1.0" encoding="UTF-8" standalone="no"?>
<!-- Created with Inkscape (http://www.inkscape.org/) -->

<svg
   xmlns:dc="http://purl.org/dc/elements/1.1/"
   xmlns:cc="http://creativecommons.org/ns#"
   xmlns:rdf="http://www.w3.org/1999/02/22-rdf-syntax-ns#"
   xmlns:svg="http://www.w3.org/2000/svg"
   xmlns="http://www.w3.org/2000/svg"
   xmlns:sodipodi="http://sodipodi.sourceforge.net/DTD/sodipodi-0.dtd"
   xmlns:inkscape="http://www.inkscape.org/namespaces/inkscape"
   width="210mm"
   height="297mm"
   viewBox="0 0 210 297"
   version="1.1"
   id="svg8"
   inkscape:version="0.92.3 (2405546, 2018-03-11)"
   sodipodi:docname="signiture.svg">
  <defs
     id="defs2">
    <inkscape:path-effect
       effect="spiro"
       id="path-effect853"
       is_visible="true" />
    <inkscape:path-effect
       effect="spiro"
       id="path-effect849"
       is_visible="true" />
    <inkscape:path-effect
       effect="spiro"
       id="path-effect845"
       is_visible="true" />
    <inkscape:path-effect
       effect="spiro"
       id="path-effect841"
       is_visible="true" />
    <inkscape:path-effect
       effect="spiro"
       id="path-effect837"
       is_visible="true" />
    <inkscape:path-effect
       effect="spiro"
       id="path-effect833"
       is_visible="true" />
    <inkscape:path-effect
       effect="spiro"
       id="path-effect829"
       is_visible="true" />
    <inkscape:path-effect
       effect="spiro"
       id="path-effect825"
       is_visible="true" />
    <inkscape:path-effect
       effect="spiro"
       id="path-effect821"
       is_visible="true" />
  </defs>
  <sodipodi:namedview
     id="base"
     pagecolor="#ffffff"
     bordercolor="#666666"
     borderopacity="1.0"
     inkscape:pageopacity="0.0"
     inkscape:pageshadow="2"
     inkscape:zoom="1.011553"
     inkscape:cx="289.40964"
     inkscape:cy="674.16335"
     inkscape:document-units="mm"
     inkscape:current-layer="layer1"
     showgrid="false"
     inkscape:window-width="1920"
     inkscape:window-height="986"
     inkscape:window-x="-11"
     inkscape:window-y="-11"
     inkscape:window-maximized="1" />
  <metadata
     id="metadata5">
    <rdf:RDF>
      <cc:Work
         rdf:about="">
        <dc:format>image/svg+xml</dc:format>
        <dc:type
           rdf:resource="http://purl.org/dc/dcmitype/StillImage" />
        <dc:title></dc:title>
      </cc:Work>
    </rdf:RDF>
  </metadata>
  <g
     inkscape:label="Layer 1"
     inkscape:groupmode="layer"
     id="layer1">
    <path
       style="opacity:0.95999995;fill:#ffffff;fill-opacity:1;stroke:#dbae62;stroke-width:0;stroke-miterlimit:4;stroke-dasharray:none;stroke-dashoffset:0;stroke-opacity:1"
       id="path1021"
       d="m 81.440656,89.605754 c -1.053912,2.531318 -2.268618,4.97819 -3.363239,7.488521 -1.066227,2.445217 -1.544509,3.645065 -2.581663,6.162715 -1.16205,2.90816 -2.362949,5.80264 -3.413995,8.76129 -0.42835,1.20577 -0.874464,2.54692 -1.159357,3.81412 -0.09498,0.4225 -0.143857,0.85562 -0.215795,1.28343 0.03968,0.30502 -0.0062,0.6385 0.118982,0.91509 0.274142,0.60581 0.982561,0.63161 1.489462,0.54287 1.37955,-0.24155 2.24836,-0.88459 3.405993,-1.76466 1.104275,-0.8395 2.156468,-1.75666 3.234695,-2.63501 5.677124,-5.28993 2.593426,-2.24061 9.11938,-9.30188 0,0 0.347882,-0.15626 0.347882,-0.15626 v 0 c -6.366467,7.00132 -3.344801,3.97779 -8.930043,9.22642 -1.057667,0.87202 -2.074951,1.80472 -3.173006,2.61605 -1.329405,0.98224 -2.915401,2.22652 -4.617151,2.49026 -0.560582,0.0869 -1.269117,0.0146 -1.5502,-0.63395 -0.124982,-0.28841 -0.07461,-0.63209 -0.111926,-0.94813 0.07832,-0.43406 0.13395,-0.87366 0.234937,-1.30218 0.303349,-1.2872 0.759492,-2.61828 1.205109,-3.84558 1.075006,-2.96077 2.28617,-5.86253 3.451048,-8.78204 0.740751,-1.81904 1.744742,-4.311966 2.530049,-6.139752 1.070777,-2.492249 2.286667,-4.910233 3.277523,-7.442858 0,0 0.701315,-0.348466 0.701315,-0.348466 z"
       inkscape:connector-curvature="0" />
    <path
       style="opacity:0.95999995;fill:#ffffff;fill-opacity:1;stroke:#dbae62;stroke-width:0;stroke-miterlimit:4;stroke-dasharray:none;stroke-dashoffset:0;stroke-opacity:1"
       id="path1027"
       d="m 87.59799,88.725907 c -0.521456,1.971184 -0.956941,3.976279 -1.640569,5.892993 -0.155015,0.434626 -0.33789,0.856973 -0.506829,1.28544 -0.19499,0.406318 -0.324663,0.858145 -0.584964,1.218962 -0.637879,0.884206 -2.029047,2.019024 -2.8846,2.543635 -0.911837,0.559113 -1.85572,1.061983 -2.824753,1.493673 -1.782782,0.79419 -4.049628,1.3809 -5.89586,1.91739 -3.912051,0.93689 -1.978847,0.52196 -5.798016,1.25346 0,0 0.515522,-0.42087 0.515522,-0.42087 v 0 c 3.806222,-0.72504 1.878988,-0.31261 5.780058,-1.24635 2.767188,-0.81157 3.268281,-0.88228 5.920856,-1.95393 1.486483,-0.60054 2.037146,-0.901427 3.305552,-2.006942 0.434345,-0.378571 0.863368,-0.77805 1.208822,-1.252049 0.261438,-0.358713 0.392287,-0.809305 0.588432,-1.213964 0.169678,-0.426767 0.353632,-0.847202 0.509036,-1.280316 0.682942,-1.903304 1.117602,-3.895792 1.601156,-5.864643 0,0 0.706157,-0.366489 0.706157,-0.366489 z"
       inkscape:connector-curvature="0" />
    <path
       style="opacity:0.95999995;fill:#ffffff;fill-opacity:1;stroke:#dbae62;stroke-width:0;stroke-miterlimit:4;stroke-dasharray:none;stroke-dashoffset:0;stroke-opacity:1"
       id="path1073"
       d="m 87.672233,96.534761 c -0.269792,0.359147 -0.555383,0.703445 -0.862761,1.025205 -0.154687,0.138416 -0.196683,0.18469 -0.507471,0.247286 -0.03731,0.0075 0.01778,-0.08037 0.03276,-0.118178 0.08613,-0.217983 0.221746,-0.418416 0.34214,-0.614137 0.152673,-0.22221 0.289961,-0.457237 0.455859,-0.668641 0.05351,-0.06821 0.152989,-0.191099 0.235344,-0.233253 0.180333,-0.09233 0.368043,-0.166682 0.55207,-0.250022 0.04211,0.02655 0.08807,0.04706 0.12639,0.07972 0.135315,0.115266 0.22617,0.282119 0.319379,0.434779 0.124248,0.201169 0.0631,0.101396 0.183481,0.299293 0.03762,0.03523 0.06704,0.08492 0.112945,0.105649 0.203843,0.0921 0.488833,-0.08722 0.642325,-0.198994 0.02742,-0.01998 -0.118685,0.05567 -0.09512,0.03056 0.10297,-0.109856 0.226563,-0.194412 0.339848,-0.291635 0.304053,-0.251147 0.562925,-0.559109 0.859345,-0.819686 0.235652,-0.207164 0.600655,-0.439549 0.844426,-0.548768 0.07799,-0.03497 0.16835,-0.01301 0.252525,-0.01952 0.427063,0.04404 0.814223,0.25593 1.227745,0.36294 0.37306,0.09654 0.430358,0.08682 0.821231,0.1269 0.158837,0 0.31893,0.01965 0.47651,-0.002 0.672988,-0.09233 1.345296,-0.416327 1.9493,-0.733216 0.559897,-0.293718 0.432033,-0.162834 0.62885,-0.381982 0.03525,-0.04049 0.401733,-0.336384 0.229561,-0.513371 -0.246792,-0.253689 -1.238958,-0.451322 -1.401987,-0.474144 -1.40988,-0.19739 -2.411455,-0.113911 -3.875077,-0.09273 -0.922977,0.07019 -1.847203,0.12318 -2.76893,0.210569 -1.971081,0.186906 -4.257841,0.483878 -6.22016,0.762301 -2.219748,0.314956 -3.489041,0.516099 -5.687109,0.940307 -0.855268,0.165064 -1.706652,0.352942 -2.559979,0.52941 -2.143381,0.513203 -2.114344,0.46729 -4.13816,1.093968 -0.52825,0.163585 -1.051107,0.346974 -1.576664,0.520451 0,0 0.265163,-0.221789 0.265163,-0.221789 v 0 c 0.516013,-0.165096 1.029672,-0.339112 1.548046,-0.495269 2.056263,-0.619496 1.908583,-0.546003 4.088815,-1.05056 2.05067,-0.413376 3.254553,-0.674971 5.345569,-1.015043 0.950921,-0.154646 1.905064,-0.285253 2.858789,-0.418141 3.011576,-0.419613 6.029313,-0.812361 9.06025,-1.026691 1.431346,-0.04483 2.588664,-0.1447 3.990832,0.01393 0.237722,0.02688 1.216576,0.192368 1.497125,0.486488 0.194621,0.204016 -0.176771,0.505306 -0.234639,0.573272 -0.270605,0.176139 -0.536915,0.360278 -0.811827,0.528418 -0.325743,0.19923 -0.903671,0.496222 -1.240808,0.642014 -0.401976,0.173845 -0.879609,0.352974 -1.314978,0.411725 -0.159662,0.02156 -0.321799,0 -0.482699,0 -0.415396,-0.04345 -0.435818,-0.02951 -0.830617,-0.130647 -0.412035,-0.105492 -0.801543,-0.311091 -1.228807,-0.338586 -0.08096,0.01163 -0.207871,0.115075 -0.242872,0.0351 -0.03367,-0.07696 0.255298,-0.19814 0.195986,-0.142229 -0.0706,0.06658 -0.156586,0.111605 -0.230089,0.174385 -0.302451,0.258367 -0.561517,0.571911 -0.867754,0.825673 -0.483233,0.426311 -0.335019,0.321391 -1.03978,0.76685 -0.190507,0.120419 -0.4607,0.28165 -0.689454,0.15826 -0.04811,-0.02596 -0.0793,-0.07864 -0.118957,-0.11798 -0.139247,-0.231182 -0.03774,-0.06363 -0.182432,-0.299845 -0.0884,-0.144332 -0.175588,-0.307949 -0.309756,-0.410016 -0.03452,-0.02629 -0.07632,-0.03904 -0.11448,-0.05863 0.101005,-0.08544 0.206882,-0.164539 0.303015,-0.256332 0.03549,-0.03392 -0.0837,0.04917 -0.120201,0.08176 -0.245639,0.219549 -0.392936,0.543688 -0.590652,0.807131 -0.142043,0.231754 -0.141092,0.219442 -0.257228,0.445898 -0.02536,0.04943 -0.04829,0.100365 -0.07275,0.150347 -0.0134,0.02741 -0.01681,0.06514 -0.04095,0.08187 -0.141254,0.09816 -0.295547,0.172366 -0.444725,0.255641 -0.02051,0.0115 0.03895,-0.02669 0.05849,-0.04003 0.313784,-0.312886 0.600146,-0.655929 0.864564,-1.018382 0,0 0.451234,-0.20844 0.451234,-0.20844 z"
       inkscape:connector-curvature="0" />
  </g>
</svg>
