<?xml version="1.0" encoding="UTF-8" standalone="no"?>
<!-- Created with Inkscape (http://www.inkscape.org/) -->

<svg
   xmlns:dc="http://purl.org/dc/elements/1.1/"
   xmlns:cc="http://creativecommons.org/ns#"
   xmlns:rdf="http://www.w3.org/1999/02/22-rdf-syntax-ns#"
   xmlns:svg="http://www.w3.org/2000/svg"
   xmlns="http://www.w3.org/2000/svg"
   xmlns:sodipodi="http://sodipodi.sourceforge.net/DTD/sodipodi-0.dtd"
   xmlns:inkscape="http://www.inkscape.org/namespaces/inkscape"
   width="210mm"
   height="297mm"
   viewBox="0 0 210 297"
   version="1.1"
   id="svg8"
   inkscape:version="0.92.3 (2405546, 2018-03-11)"
   sodipodi:docname="signiture02.svg">
  <defs
     id="defs2">
    <inkscape:path-effect
       effect="bspline"
       id="path-effect922"
       is_visible="true"
       weight="33.333333"
       steps="2"
       helper_size="0"
       apply_no_weight="true"
       apply_with_weight="true"
       only_selected="false" />
    <inkscape:path-effect
       effect="bspline"
       id="path-effect918"
       is_visible="true"
       weight="33.333333"
       steps="2"
       helper_size="0"
       apply_no_weight="true"
       apply_with_weight="true"
       only_selected="false" />
    <inkscape:path-effect
       effect="bspline"
       id="path-effect914"
       is_visible="true"
       weight="33.333333"
       steps="2"
       helper_size="0"
       apply_no_weight="true"
       apply_with_weight="true"
       only_selected="false" />
    <inkscape:path-effect
       effect="bspline"
       id="path-effect910"
       is_visible="true"
       weight="33.333333"
       steps="2"
       helper_size="0"
       apply_no_weight="true"
       apply_with_weight="true"
       only_selected="false" />
  </defs>
  <sodipodi:namedview
     id="base"
     pagecolor="#ffffff"
     bordercolor="#666666"
     borderopacity="1.0"
     inkscape:pageopacity="0.0"
     inkscape:pageshadow="2"
     inkscape:zoom="1.3524635"
     inkscape:cx="94.279197"
     inkscape:cy="902.15105"
     inkscape:document-units="mm"
     inkscape:current-layer="layer1"
     showgrid="false"
     inkscape:window-width="1920"
     inkscape:window-height="986"
     inkscape:window-x="-11"
     inkscape:window-y="-11"
     inkscape:window-maximized="1" />
  <metadata
     id="metadata5">
    <rdf:RDF>
      <cc:Work
         rdf:about="">
        <dc:format>image/svg+xml</dc:format>
        <dc:type
           rdf:resource="http://purl.org/dc/dcmitype/StillImage" />
        <dc:title></dc:title>
      </cc:Work>
    </rdf:RDF>
  </metadata>
  <g
     inkscape:label="Layer 1"
     inkscape:groupmode="layer"
     id="layer1">
    <path
       style="opacity:0.95999995;fill:#ffffff;fill-opacity:1;stroke:#a9a9a9;stroke-width:0.25;stroke-miterlimit:4;stroke-dasharray:none;stroke-dashoffset:0;stroke-opacity:1"
       id="path1059"
       d="m 29.767352,7.7546434 c -0.113684,-0.847433 -0.06347,-1.7096563 0.05736,-2.5553823 0.0376,-0.263127 0.09059,-0.525191 0.135883,-0.787784 0.132377,-0.530345 0.211889,-1.07526 0.471479,-1.588314 0.0303,-0.0599 0.0636,-0.120754 0.118063,-0.172655 0.02019,-0.01923 0.06564,-0.04343 0.09549,-0.03082 0.05689,0.02401 0.06916,0.07661 0.10374,0.114909 0.01912,0.14001 -0.01521,0.27729 -0.04805,0.414713 -0.01635,0.06842 -0.0063,0.09039 -0.07322,0.140306 -0.08174,0.04557 -0.116672,0.133944 -0.153275,0.193362 -0.03842,0.0624 -0.08124,0.123727 -0.114256,0.18746 -0.106576,0.205734 -0.244245,0.550027 -0.325799,0.744911 -0.186197,0.446142 -0.331625,0.900652 -0.554363,1.340028 -0.08364,0.165 0.10381,-0.370203 -0.619483,0.594127 -0.051,0.117899 -0.353014,0.9430553 -0.051,0.117899 -0.934523,1.9021653 1.551213,-2.3699 0.09563,-0.147375 l -0.730769,1.2958413 c -0.673408,0.965059 0.493227,-0.562768 0.66574,-1.0587043 0,0 0.455356,-0.699842 0.530219,-0.856142 0.211506,-0.441589 0.356675,-0.8955 0.550869,-1.340286 0.12278,-0.268053 0.21508,-0.489643 0.362814,-0.747369 0.03639,-0.06352 0.03625,-0.09544 0.0784,-0.157381 0.04704,-0.06912 0.09431,-0.159766 0.188594,-0.211177 0.03821,-0.0021 0.02791,-0.06773 0.03503,-0.105699 0.02469,-0.131055 0.05919,-0.261675 0.05182,-0.394559 0.01993,-0.02148 0.04893,-0.0403 0.05976,-0.06445 0.0029,-0.0063 -0.02504,-0.0094 -0.02931,-0.0034 -0.03863,0.0533 -0.066,0.11012 -0.08932,0.16717 -0.211339,0.517095 -0.287439,1.053457 -0.409562,1.581129 -0.128824,0.720009 -0.257167,1.439451 -0.29723,2.164652 -0.0088,0.157933 -0.0051,0.3160623 -0.0057,0.4741003 -0.0019,0.427845 -0.0029,0.322183 0.01856,0.685501 3.7e-4,0.0056 -0.117519,0.01098 -0.118103,0.0055 z"
       inkscape:connector-curvature="0"
       sodipodi:nodetypes="cscccccsccccccccccsccccccccccccccc" />
    <path
       style="opacity:0.95999995;fill:#ffffff;fill-opacity:1;stroke:#a9a9a9;stroke-width:0.25;stroke-miterlimit:4;stroke-dasharray:none;stroke-dashoffset:0;stroke-opacity:1"
       id="path1087"
       d="m 26.143074,10.450114 c -0.155117,0.210374 -0.238428,0.324901 -0.411806,0.550852 -0.834254,1.087231 0.222967,-0.308553 -0.805283,1.043384 -0.370482,0.487112 -0.736746,0.975617 -1.105344,1.463352 -0.815221,1.143869 -1.629252,2.288668 -2.381312,3.451454 -0.343468,0.531053 -0.503081,0.797559 -0.820274,1.314849 -0.0918,0.152603 -0.186502,0.304458 -0.275409,0.457804 -0.490769,0.846475 -0.09725,0.212386 -0.65244,1.147542 -0.479057,0.80691 -0.998358,1.601824 -1.522736,2.39619 -0.671728,0.987275 -1.371817,1.965856 -2.036608,2.95522 -0.217496,0.323686 -0.429408,0.648995 -0.643494,0.97367 -0.175779,0.266582 -0.356439,0.5318 -0.526099,0.800099 -0.127884,0.202236 -0.244283,0.407563 -0.366425,0.61134 -0.05328,0.103312 0,0 -0.269068,0.612417 -7.35e-4,0.01656 0.02466,0.03817 0.04972,0.03733 0.03397,-5.2e-4 0.05014,-0.03119 0.0804,-0.0414 0.115657,-0.03905 0.364258,-0.01801 0.478714,-0.04311 0.484826,-0.07822 0.95532,-0.203958 1.39104,-0.376238 0.627861,-0.248259 1.01095,-0.489587 1.589702,-0.807456 0.340406,-0.209676 0.694682,-0.409942 1.021224,-0.629033 2.171367,-1.456883 3.887394,-3.170711 5.644605,-4.843353 1.229183,-1.153183 0.638729,-0.61223 1.765679,-1.62555 0.0079,-0.0092 0.149663,-0.05382 0.141697,-0.04467 l -0.351619,0.419816 c -1.086075,1.027009 -0.106459,0.179871 -1.313903,1.33951 -1.763958,1.685628 -3.489778,3.405807 -5.708251,4.852335 -0.334513,0.218111 -0.69608,0.417358 -1.044122,0.626029 -0.632838,0.330157 -0.923783,0.523598 -1.600674,0.77345 -0.446822,0.164938 -0.873325,0.284171 -1.36481,0.358754 -0.08469,0.01734 -0.202097,0.05399 -0.285943,0.07298 -0.117554,0.02671 -0.435561,0.101642 -0.573083,0.0684 -0.04812,-0.01161 -0.04658,-0.114634 -0.05195,-0.148302 -0.02758,-0.172921 0.165739,-0.526394 0.215112,-0.64029 0.11338,-0.207233 0.219194,-0.416342 0.340151,-0.621706 0.159608,-0.270988 0.330995,-0.538891 0.50135,-0.80701 0.20791,-0.32721 0.415787,-0.654478 0.633409,-0.978924 0.663776,-0.989608 1.38496,-1.961955 2.066904,-2.94604 0.880903,-1.314736 1.751386,-2.63444 2.48481,-3.988849 0.313836,-0.545148 0.433736,-0.764672 0.787489,-1.326361 0.736786,-1.169872 1.551098,-2.317801 2.394933,-3.455405 0.773489,-1.020419 1.563892,-2.036081 2.421719,-3.026869 0.0027,-0.0047 0.104545,0.01908 0.101989,0.02384 z"
       inkscape:connector-curvature="0"
       sodipodi:nodetypes="ccccsccscscscccccccccccccsccccccccccccsccc" />
    <path
       style="opacity:0.95999995;fill:#ffffff;fill-opacity:1;stroke:#a9a9a9;stroke-width:0.25;stroke-miterlimit:4;stroke-dasharray:none;stroke-dashoffset:0;stroke-opacity:1"
       id="path1115"
       d="m 26.408436,20.824926 c 0.392538,-0.467307 -0.23194,0.3394 -0.13038,0.175815 0.06206,-0.09996 0.663205,-0.870053 0.751901,-0.961778 0.0206,-0.02135 0.0488,-0.03738 0.07322,-0.05611 0.03381,0.0075 0.08405,-0.0016 0.101476,0.02244 0.02879,0.03952 7.36e-4,0.30919 3.68e-4,0.32191 -0.0015,0.09733 -0.0021,0.194806 0.0048,0.291981 0.02125,0.29134 0.05584,0.42736 0.110871,0.715701 0.06324,0.202173 0.09496,0.366647 0.21987,0.550169 0.05318,0.07814 0.152212,0.188119 0.283463,0.20111 0.128419,0.0127 0.345566,-0.108995 0.418217,-0.140861 0.105841,-0.06702 0.217693,-0.128589 0.317521,-0.201048 0.261554,-0.189848 0.560496,-0.460033 0.780565,-0.674515 0.379121,-0.369495 0.70288,-0.751935 1.024125,-1.15223 0.05357,-0.07726 0.110357,-0.153217 0.16072,-0.231804 0.02417,-0.03775 0.04704,-0.07635 0.06264,-0.116764 0.0015,-0.0042 -0.01569,-0.0095 -0.01562,-0.0052 2.36e-4,0.0199 0.02082,0.03864 0.01627,0.05819 -0.01074,0.04634 -0.04047,0.08876 -0.06069,0.133128 -0.0148,0.08025 -0.0296,0.160503 -0.04441,0.240751 -0.04594,0.476372 0.0019,0.95503 0.153068,1.418207 0.03315,0.101643 0.07016,0.202835 0.117753,0.300885 0.03602,0.0742 0.448878,-0.440653 0.493001,-0.369193 0.0029,0.0059 -0.463941,0.623487 -0.467012,0.617593 v 0 c -0.04854,-0.07463 -0.105841,-0.146137 -0.145628,-0.22388 -0.05113,-0.09991 -0.09123,-0.203324 -0.126267,-0.30741 -0.159023,-0.472372 -0.199377,-0.963116 -0.139423,-1.448641 0.02174,-0.0919 0.045,-0.469291 0.284998,-0.449827 0.02668,0.002 0.03341,0.03722 0.03112,0.05818 -0.01016,0.09323 -0.176261,0.331304 -0.201466,0.372068 -0.08715,0.114358 -0.169771,0.230915 -0.261469,0.34307 -0.247117,0.302234 -0.472069,0.547134 -0.762641,0.826077 -0.241049,0.231399 -0.522382,0.478507 -0.80902,0.678216 -0.106237,0.07402 -0.224545,0.136671 -0.336817,0.205006 -0.20395,0.08328 -0.314291,0.168301 -0.552355,0.133467 -0.06526,-0.0095 -0.125108,-0.04056 -0.174324,-0.07545 -0.257265,-0.182464 -0.310678,-0.481313 -0.394196,-0.726916 -0.02292,-0.120935 -0.05153,-0.241302 -0.0688,-0.362815 -0.03883,-0.273018 -0.04251,-0.398254 -0.02668,-0.662284 0.0037,-0.06149 0.01232,-0.122746 0.02067,-0.183959 0.0041,-0.02988 0.0015,-0.06167 0.01646,-0.08933 0.0068,-0.01245 0.02934,-0.01421 0.04402,-0.02135 -0.121983,0.103676 -0.193047,0.236914 -0.271624,0.362238 -0.103144,0.164511 -0.467721,0.415784 -0.575966,0.578286 -0.0027,0.0047 -0.586022,0.605784 -0.583303,0.601092 z"
       inkscape:connector-curvature="0"
       sodipodi:nodetypes="cscccccccccccccccccccccccccccccccccccccccccsccc" />
    <path
       style="opacity:0.95999995;fill:#ffffff;fill-opacity:1;stroke:#a9a9a9;stroke-width:0.25;stroke-miterlimit:4;stroke-dasharray:none;stroke-dashoffset:0;stroke-opacity:1"
       id="path1119"
       d="m 37.908708,20.576844 c -0.315505,0.203479 -0.62141,0.416795 -0.862758,0.662044 -0.10095,0.102595 -0.27606,0.301338 -0.292507,0.437977 -0.0063,0.05283 0.03208,0.103858 0.04811,0.155789 0.05137,0.02921 0.08935,0.0744 0.154102,0.08767 0.231191,0.04738 0.49103,-0.03811 0.675515,-0.110667 0.363444,-0.142965 0.697645,-0.339379 0.980517,-0.545071 0.139474,-0.101418 0.257102,-0.215065 0.385653,-0.322603 0.166855,-0.190238 0.307828,-0.309596 0.379392,-0.520427 0.0063,-0.01843 0.05615,-0.173728 -0.06847,-0.181444 -0.02661,-0.0016 -0.04398,0.02025 -0.06395,0.03197 -0.0425,0.02499 -0.08211,0.05196 -0.123175,0.07799 -0.03979,0.03989 -0.08876,0.07638 -0.119376,0.119664 -0.08705,0.123023 -0.101125,0.228046 -0.09431,0.364471 0.0089,0.177341 0.06104,0.378883 0.147816,0.545921 0.05444,0.104778 0.13337,0.203291 0.200053,0.30494 0.468957,0.540942 1.195124,0.06185 1.195124,0.06185 0.29536,0.01017 -0.02308,0.103612 -0.190566,0.129917 -0.295806,0.04645 -0.535601,0.349178 -0.535601,0.349178 v 0 c -0.450679,-0.30054 -0.244417,-0.13265 -0.610063,-0.508289 -0.06686,-0.106298 -0.146495,-0.209463 -0.200553,-0.31888 -0.137977,-0.27926 -0.224644,-0.691635 -0.0203,-0.967834 0.03539,-0.04785 0.09066,-0.08806 0.135982,-0.132093 0.05555,-0.03186 0.09883,-0.07676 0.166656,-0.09556 0.287556,-0.07976 0.350647,0.102573 0.312526,0.242426 -0.02288,0.08396 -0.06394,0.166189 -0.116792,0.244025 -0.07275,0.107163 -0.17213,0.205537 -0.258199,0.3083 -0.130977,0.111563 -0.249468,0.23004 -0.392932,0.334687 -0.26486,0.193197 -0.674509,0.437123 -1.032027,0.559094 -0.244814,0.08352 -0.570827,0.164257 -0.849237,0.07963 -0.07989,-0.02426 -0.121894,-0.08377 -0.182841,-0.125658 -0.01719,-0.06313 -0.05771,-0.125391 -0.05159,-0.189415 0.01429,-0.149688 0.182472,-0.350896 0.294777,-0.46689 0.243783,-0.251784 0.559448,-0.467859 0.896764,-0.664976 0.0056,-0.0042 0.09786,0.04796 0.09227,0.05229 z"
       inkscape:connector-curvature="0"
       sodipodi:nodetypes="ccccccsccccccccccsccccccccsccccccccc" />
    <path
       style="opacity:0.95999995;fill:#ffffff;fill-opacity:1;stroke:#a9a9a9;stroke-width:0.25;stroke-miterlimit:4;stroke-dasharray:none;stroke-dashoffset:0;stroke-opacity:1"
       id="path1135"
       d="m 40.450448,21.746907 c 0.327476,-0.302425 0.685869,-0.470321 1.010217,-0.774059 0.06564,0.101771 0.05823,-0.222047 0.09485,-0.19781 0.127404,0.08435 0.06139,0.113266 0.02214,0.216783 -0.06847,0.180559 -0.06424,0.183767 -0.117955,0.376739 -0.05655,0.273465 -0.127686,0.591537 0.09403,0.845123 0.04133,0.04727 0.09081,0.09697 0.16323,0.123278 0.07757,0.02817 0.174283,0.02062 0.26142,0.03098 0.104755,-0.01708 0.214012,-0.02489 0.314247,-0.05123 0.714547,-0.188025 1.280391,-0.646944 1.742063,-1.036315 0.150308,-0.140517 0.195583,-0.172388 0.308743,-0.309501 0.01757,-0.02125 0.03462,-0.04301 0.04571,-0.06611 0.0015,-0.0031 -0.01444,-0.0081 -0.01109,-0.0059 0.05802,0.03916 0.05568,0.01541 0.02182,0.06241 -0.08561,0.124772 -0.09067,0.26215 -0.07666,0.39679 0.0048,0.04727 0.0083,0.09509 0.024,0.14134 0.01857,0.05454 0.05229,0.106331 0.07843,0.159498 0.171118,0.256048 0.373891,0.475731 0.858137,0.468603 0.416448,-0.0061 0.757285,-0.134202 1.133797,-0.236648 0.232763,-0.08696 0.473416,-0.165281 0.698295,-0.260864 0.785143,-0.333714 1.558558,-0.80351 1.970113,-1.366754 0.05748,-0.07867 0.08824,-0.164693 0.132364,-0.24704 0.01528,-0.118357 0.0471,-0.282036 -0.187963,-0.319077 -0.141638,-0.02234 -0.294932,0.0478 -0.411244,0.08655 -0.04976,0.02504 -0.102829,0.04749 -0.149294,0.07515 -0.171763,0.102296 -0.245067,0.177539 -0.390267,0.307018 -0.302978,0.27017 -0.578948,0.549258 -0.850851,0.83333 -0.195973,0.235689 -0.430533,0.486416 -0.457736,0.76389 -0.0062,0.06277 0.0078,0.198716 0.139485,0.227499 0.06663,0.01458 0.140283,-0.0031 0.210427,-0.0052 0.470239,-0.103558 0.87763,-0.278907 1.277647,-0.469004 0.229373,-0.109012 0.455861,-0.220861 0.675835,-0.338015 0.240008,-0.127829 0.478646,-0.257303 0.703518,-0.396624 0.264143,-0.163647 0.508104,-0.340957 0.76216,-0.511435 0.273597,-0.222479 0.569186,-0.433904 0.82079,-0.667428 0.71934,-0.667643 1.301495,-1.376714 1.861402,-2.106914 0.64275,-0.838232 1.048989,-1.445888 1.559637,-2.312978 0.179351,-0.304529 0.336386,-0.614583 0.504579,-0.921876 0.200936,-0.516957 0.558062,-1.078948 0.499122,-1.628341 -0.0049,-0.04636 -0.01888,-0.230566 -0.189275,-0.186376 -0.04126,0.0107 -0.06124,0.04225 -0.09189,0.06339 -0.130385,0.09152 -0.224049,0.201005 -0.296857,0.31635 -0.0086,0.01362 -0.01015,0.02902 -0.02017,0.04222 -0.003,0.0045 0.0069,-0.01334 -2.63e-4,-0.0152 -0.02869,-0.0076 -0.06118,-0.006 -0.09175,-0.009 -0.0043,0.0044 -0.0079,0.0087 -0.01201,0.01299 0.0019,0.0122 0.01423,0.0259 0.0049,0.03661 -0.03593,0.04261 -0.08953,0.07756 -0.134304,0.11635 -0.0781,0.09529 -0.161743,0.188673 -0.234293,0.285852 -0.309062,0.413994 -0.355887,0.523078 -0.62483,0.974756 -0.106028,0.201309 -0.221217,0.400613 -0.318074,0.603925 -0.251919,0.528835 -0.417561,0.989526 -0.611742,1.532653 -0.286188,0.80046 -0.533988,1.605675 -0.782007,2.411543 -0.194659,0.638322 -0.407501,1.27392 -0.60544,1.911778 -0.09904,0.319135 -0.203597,0.635427 -0.271328,0.958097 0.0067,0.03119 6.13e-4,0.06468 0.01981,0.09352 0.02194,0.03311 0.143542,0.0237 0.165361,0.02421 0.270666,0.0063 0.537782,0.03135 0.806848,0.0516 0.156508,0.01028 0.223061,0.162877 0.380293,0.16547 2.13194,0.31814 3.276781,0.352166 4.512918,-0.08062 0.527128,-0.06909 1.777071,-0.880197 1.777071,-0.880197 0.618663,-0.352073 1.255939,-1.388835 0.652222,-2.107249 -0.211236,-0.251372 -0.568975,-0.443609 -0.92583,-0.608225 -1.535673,-0.708409 -2.494137,-0.720734 -4.40529,-1.047176 -1.26104,-0.10783 -2.516796,-0.247273 -3.783103,-0.32349 -2.927008,-0.176167 -5.94359,-0.219321 -8.877846,-0.126385 -1.738856,0.05508 -3.475235,0.151083 -5.205923,0.275188 -4.285351,0.307301 -6.806237,0.634453 -11.031007,1.110984 -1.884591,0.25871 -3.771827,0.509163 -5.653775,0.776134 -2.156091,0.305864 -8.401278,1.245352 -10.5627494,1.544684 -3.1375712,0.434514 -6.4576574,0.844749 -9.62274461,1.201133 -1.23196489,0.138716 -2.46811179,0.260703 -3.70216949,0.391058 -0.8590892,0.08071 -1.7181821,0.161422 -2.5772749,0.242135 -0.022368,0.006 -0.1512711,-0.203084 -0.1288848,-0.209099 v 0 l 2.5342149,-0.306351 c 2.2482494,-0.271351 6.1250648,-0.735466 8.2429779,-1.009088 1.6692998,-0.215663 3.3368209,-0.437606 5.000713,-0.670771 15.7619584,-2.208771 -5.233923,0.682904 10.5548184,-1.568082 1.88865,-0.269265 3.78665,-0.509097 5.679974,-0.763647 1.803847,-0.208786 3.600824,-0.445328 5.41152,-0.626356 3.558877,-0.3558 7.318569,-0.642513 10.922901,-0.733711 1.627528,-0.04118 3.25825,-0.03843 4.886158,-0.0045 1.434063,0.02988 2.867856,0.09267 4.29411,0.195806 1.270211,0.09185 2.525311,0.259075 3.787968,0.388615 1.813352,0.357595 2.964642,0.431401 4.418219,1.173786 0.369062,0.188491 0.727188,0.412928 0.931447,0.68996 0.580746,0.787648 -0.131556,1.709838 -0.840646,2.114657 -0.902615,0.534814 -1.330267,0.726203 -1.777071,0.880202 -0.407593,0.141991 -1.454203,0.338848 -3.532923,0.224692 -0.517318,0.02619 -0.937111,-0.187984 -1.408149,-0.225286 -0.09998,-0.0095 -0.471934,-0.04587 -0.60685,-0.05551 -0.132857,-0.0095 -0.360081,0.0083 -0.432956,-0.09366 -0.02464,-0.03447 -0.02232,-0.0748 -0.03353,-0.112192 0.0079,-0.06647 0.01144,-0.13325 0.02379,-0.199434 0.0442,-0.238121 0.131924,-0.543114 0.196259,-0.770592 0.180981,-0.639915 0.389875,-1.275909 0.580899,-1.914523 0.23582,-0.809652 0.474281,-1.617833 0.770095,-2.419145 0.192047,-0.520211 0.393523,-1.029265 0.644418,-1.538222 0.100647,-0.204191 0.218402,-0.404534 0.3276,-0.606802 0.270661,-0.433458 0.52592,-0.876897 0.929859,-1.266658 0.06934,-0.06691 0.163484,-0.165443 0.316437,-0.150513 0.02341,0.0024 0.0209,0.02806 0.03133,0.0421 -0.03457,0.0086 -0.06691,0.02687 -0.103787,0.02558 -0.02017,-6.76e-4 -0.01729,-0.04192 0.0043,-0.08283 0.06877,-0.131398 0.179951,-0.249697 0.326786,-0.349314 0.07647,-0.02357 0.145208,-0.06743 0.229462,-0.0707 0.208488,-0.008 0.267141,0.162877 0.284367,0.254041 0.02341,0.123862 0.02054,0.250142 0.0037,0.374461 -0.06632,0.486085 -0.233937,0.809756 -0.425721,1.296827 -0.15926,0.311583 -0.304291,0.626496 -0.477775,0.934747 -0.480731,0.854188 -0.917365,1.517475 -1.553752,2.333525 -0.591394,0.758354 -1.172618,1.426657 -1.937496,2.110106 -0.261573,0.233721 -0.56464,0.445885 -0.846962,0.668834 -0.26087,0.170676 -0.512362,0.347835 -0.782606,0.512024 -0.423315,0.257177 -0.932664,0.517303 -1.407642,0.733205 -0.306661,0.139399 -0.673291,0.29686 -1.02883,0.388928 -0.129066,0.03342 -0.266189,0.05123 -0.399286,0.07686 -0.09007,-0.0095 -0.189148,-0.001 -0.270219,-0.02864 -0.147185,-0.05014 -0.179604,-0.196976 -0.174056,-0.286259 0.0179,-0.288153 0.255244,-0.550148 0.456087,-0.795105 0.274574,-0.287124 0.553583,-0.567227 0.869403,-0.835542 0.151388,-0.128621 0.242868,-0.211238 0.419947,-0.31473 0.05147,-0.0301 0.109214,-0.05512 0.163829,-0.08269 0.166994,-0.05592 0.365237,-0.130895 0.56072,-0.08123 0.274487,0.06975 0.257821,0.242182 0.244913,0.40133 -0.04198,0.08846 -0.06884,0.180684 -0.125984,0.265348 -0.394926,0.58518 -1.195694,1.075032 -1.999738,1.414755 -0.230829,0.09753 -0.478826,0.176081 -0.718236,0.264119 -0.499756,0.128287 -0.750114,0.236522 -1.284067,0.224635 -0.509601,-0.01136 -0.746106,-0.255361 -0.921879,-0.529909 -0.02598,-0.0577 -0.05934,-0.114171 -0.07792,-0.173103 -0.01528,-0.04842 -0.01893,-0.09824 -0.02318,-0.147641 -0.01266,-0.147121 7.35e-4,-0.2965 0.100133,-0.430681 0.0211,-0.01943 0.02979,-0.04925 0.06329,-0.05832 0.08604,-0.02328 0.140574,0.0082 0.130679,0.05817 -0.01062,0.05343 -0.128088,0.189181 -0.150165,0.213034 -0.0596,0.06439 -0.127267,0.125371 -0.190902,0.188057 -0.29516,0.257605 -0.597263,0.50918 -0.970444,0.721012 -0.222871,0.126511 -0.549147,0.285961 -0.83684,0.349178 -0.136445,0.02999 -0.283944,0.0302 -0.425917,0.04525 -0.103319,-0.0203 -0.218773,-0.02296 -0.309957,-0.06095 -0.0804,-0.03348 -0.136057,-0.08983 -0.183048,-0.144387 -0.230131,-0.267206 -0.162448,-0.596755 -0.09901,-0.88455 0.05585,-0.18616 0.05599,-0.2078 0.130756,-0.382002 0.04063,-0.09466 -0.07144,-0.174378 0.09485,-0.197809 0.185564,-0.02614 -0.09745,0.199163 0.03662,0.130141 -0.309876,0.314407 -0.698003,0.591314 -1.048821,0.885486 -0.0047,0.0042 -0.09754,-0.03942 -0.09286,-0.04378 z"
       inkscape:connector-curvature="0"
       sodipodi:nodetypes="ccccccsccccccccccccssccccccccccccccsccccccccccccsccscccccccccccccssccscccccccccccssccccccccccccscccccccccccsccsccccccccscccccccccccsccccccccccsccccccc" />
    <path
       style="opacity:0.95999995;fill:#ffffff;fill-opacity:1;stroke:#a9a9a9;stroke-width:0.25;stroke-miterlimit:4;stroke-dasharray:none;stroke-dashoffset:0;stroke-opacity:1"
       id="path1145"
       d="m 37.200894,3.1493111 c -0.37962,-0.472544 -0.698738,-0.965224 -1.073294,-1.439301 -0.009,-0.0049 -0.03492,-0.0203 -0.02683,-0.01478 0.02772,0.0189 0.07386,0.02989 0.08581,0.055 0.02347,0.04927 0.01121,0.103066 0.01403,0.154683 0.0041,0.07507 0.0067,0.1502 0.0064,0.22532 -0.0011,0.312822 -0.0076,0.277345 -0.0511,0.606833 -0.02248,0.127235 -0.04146,0.254765 -0.06747,0.381706 -0.09115,0.444687 -0.210096,0.886925 -0.302328,1.331575 -0.104942,0.50592 -0.09172,0.466009 -0.165803,0.967167 -0.108198,0.816905 -0.01451,1.6356223 0.05184,2.4519443 0.02651,0.426232 0.05352,0.852806 0.03889,1.279519 -0.0046,0.132707 -0.0075,0.265694 -0.02658,0.397838 -0.05248,0.363327 -0.09579,0.41486 -0.235216,0.7604796 -0.06962,0.107485 -0.126767,0.218884 -0.208882,0.322446 -0.377294,0.475822 -1.041576,0.855237 -1.714624,1.140429 -0.251429,0.106533 -0.518167,0.196415 -0.777251,0.294627 -0.280392,0.0838 -0.553292,0.179538 -0.841176,0.251406 -0.695476,0.173618 -1.43008,0.290938 -2.161668,0.372668 -0.988155,0.110397 -2.020682,0.173686 -3.020342,0.2011 -0.637052,0.01746 -1.275025,0.01419 -1.912535,0.02131 -2.887066,-0.01626 -5.761569,-0.223613 -8.609694,-0.526018 -1.169577,-0.124184 -2.330803,-0.280538 -3.496203,-0.420805 -0.02798,-0.0079 0.14126,-0.269283 0.169242,-0.261381 v 0 c 1.159421,0.142187 2.315597,0.296436 3.478258,0.42655 2.774785,0.310529 5.570117,0.556111 8.387052,0.603532 0.636176,-2.18e-4 1.272589,0.01089 1.908528,-6.76e-4 0.531251,-0.0096 1.062006,-0.0328 1.591519,-0.06276 1.201559,-0.06796 2.420055,-0.18061 3.559436,-0.455037 0.284899,-0.06862 0.554082,-0.162913 0.831123,-0.244374 0.575412,-0.211516 0.908261,-0.313608 1.422198,-0.57695 0.396872,-0.203362 0.810526,-0.499762 1.044341,-0.79661 0.07881,-0.100048 0.133358,-0.207648 0.200038,-0.311471 0.128252,-0.3221106 0.181818,-0.4037366 0.228325,-0.7419506 0.01805,-0.131118 0.01694,-0.263107 0.02071,-0.394742 0.01214,-0.42506 -0.0048,-0.85019 -0.03441,-1.274785 -0.0569,-0.821003 -0.167431,-1.6436233 -0.06155,-2.4652863 0.06812,-0.478142 0.0615,-0.49107 0.164787,-0.972305 0.122292,-0.56981 0.290096,-1.135156 0.392362,-1.706848 0.05155,-0.337474 0.05285,-0.278399 0.06473,-0.598778 0.0027,-0.07444 0.0029,-0.148894 0.0029,-0.223345 1.02e-4,-0.09603 -0.05145,-0.196607 0.101755,-0.260926 0.02118,-0.0089 0.04002,0.01999 0.06004,0.03001 0.186144,0.202717 0.340077,0.414315 0.496379,0.627743 0.198255,0.27072 0.39882,0.541221 0.569543,0.820198 0.0027,0.0048 -0.100611,0.02983 -0.103284,0.025 z"
       inkscape:connector-curvature="0" />
    <path
       style="opacity:0.95999995;fill:#ffffff;fill-opacity:1;stroke:#a9a9a9;stroke-width:0.25;stroke-miterlimit:4;stroke-dasharray:none;stroke-dashoffset:0;stroke-opacity:1"
       id="path1149"
       d="m 36.781448,11.136628 c 0.703222,-0.775622 1.347082,-1.5740506 1.947101,-2.3863936 0.06427,-0.09092 0.131052,-0.181072 0.192789,-0.272746 0.02794,-0.0415 0.02835,-0.094 0.07616,-0.126653 0.01864,-0.01274 0.04514,0.02668 0.04425,0.04439 -0.0015,0.03206 -0.03285,0.06039 -0.051,0.09015 -0.03695,0.06058 -0.07849,0.119913 -0.114268,0.180794 -0.0419,0.0713 -0.07911,0.143771 -0.118653,0.215654 -0.110078,0.223052 -0.188179,0.450096 -0.184259,0.685833 0.0037,0.223436 0.07413,0.4418826 0.1399,0.6598206 0.114897,0.288436 0.217492,0.579946 0.358649,0.86354 0.03632,0.07298 0.07177,0.146366 0.117584,0.216972 0.04767,0.07347 0.108245,0.142985 0.162359,0.214479 0.201746,0.20428 0.45894,0.462899 0.880586,0.454145 0.235704,-0.0049 0.485113,-0.07962 0.69801,-0.130013 0.140283,-0.04754 0.2835,-0.09146 0.420849,-0.142596 0.24797,-0.09232 0.590393,-0.242046 0.823666,-0.350459 0.232313,-0.107966 0.508142,-0.241985 0.716828,-0.371038 0.100892,-0.0624 0.190603,-0.132233 0.285903,-0.198351 0.464343,-0.368878 0.866745,-0.780185 1.083827,-1.2415126 0.03127,-0.06646 0.05116,-0.135043 0.07674,-0.202561 0.02126,-0.09953 0.04866,-0.170989 0.03332,-0.268581 -0.0037,-0.02248 -0.01248,-0.04484 -0.02606,-0.06558 -0.0071,-0.01089 -0.0206,-0.01993 -0.03477,-0.02722 -0.0029,-0.0015 -0.01027,0.0051 -0.0067,0.0059 0.02096,0.0046 0.04363,0.0047 0.06544,0.0071 -0.0043,0.01978 -0.01097,0.03941 -0.01299,0.05935 -0.01413,0.135049 -0.01509,0.270563 -0.02444,0.405793 -0.02572,0.372444 -0.05809,0.7440266 -0.100366,1.1158086 -0.01533,0.136682 -0.03052,0.273374 -0.04592,0.410052 -0.03171,0.281328 -0.04408,0.410173 -0.08386,0.681458 -0.01039,0.07083 -0.02359,0.141469 -0.0348,0.212244 -0.01702,0.107406 0.0027,0.139335 -0.02071,0.09637 -0.02805,-0.02014 -0.07771,-0.03341 -0.08418,-0.06046 -0.01203,-0.05025 0.02403,-0.100508 0.03356,-0.150988 0.02462,-0.130272 0.07594,-0.462449 0.09006,-0.572457 0.04233,-0.329812 0.06714,-0.618972 0.09894,-0.950885 0.03721,-0.4643336 0.06296,-0.9292936 0.11742,-1.3929706 0.01132,-0.09693 0.03397,-0.332697 0.09124,-0.446236 0.01233,-0.02447 0.04351,-0.04283 0.06527,-0.06426 0.05366,0.0064 0.113591,0.0013 0.160978,0.01904 0.0541,0.02032 0.08291,0.06145 0.128253,0.08959 0.194986,0.12103 0.267925,0.164513 0.585774,0.175293 0.682586,0.02315 1.292672,-0.114386 1.954618,-0.214751 0.01406,-0.0042 0.104755,0.126979 0.09071,0.131217 v 0 c -0.750986,0.09858 -1.786364,0.328065 -2.54121,0.06669 -0.02336,-0.0081 -0.256707,-0.151488 -0.28913,-0.192348 -0.0096,-0.01209 0.0054,-0.02708 0.0081,-0.04062 -0.01314,0.014 -0.03356,0.02599 -0.03936,0.042 -0.04196,0.115387 -0.05068,0.342643 -0.0578,0.439174 -0.03433,0.464896 -0.06401,0.929949 -0.102386,1.3947196 -0.04763,0.428835 -0.09875,0.856186 -0.184554,1.282569 -0.01654,0.08211 -0.03429,0.164136 -0.05485,0.245851 -0.01258,0.05005 -0.01207,0.103344 -0.0446,0.149293 -0.02421,0.03418 -0.07925,0.05438 -0.11888,0.08156 -0.0067,-0.0083 -0.01852,-0.01556 -0.01985,-0.02488 -0.0096,-0.06792 0.01934,-0.291138 0.0224,-0.321088 0.03742,-0.364032 0.07122,-0.728246 0.117615,-1.091846 0.0439,-0.371062 0.07817,-0.7423926 0.119989,-1.1135486 0.009,-0.07928 0.03322,-0.311019 0.05224,-0.411715 0.0041,-0.0216 0.01255,-0.04271 0.01883,-0.06408 0.0297,-0.01749 0.05201,-0.04301 0.08914,-0.05245 0.03624,-0.0092 0.100425,0.06517 0.100542,0.06536 0.07709,0.115315 0.03315,0.249474 0.01218,0.367785 -0.02466,0.07042 -0.04292,0.141976 -0.07402,0.211287 -0.212716,0.4739466 -0.622156,0.8965136 -1.102342,1.2709306 -0.09751,0.06872 -0.189208,0.141242 -0.292525,0.206149 -0.212923,0.133766 -0.484737,0.267143 -0.723117,0.378922 -0.403342,0.189132 -0.820519,0.367833 -1.272651,0.50244 -0.324368,0.07477 -0.473085,0.131396 -0.820773,0.126766 -0.453198,-0.006 -0.739302,-0.27174 -0.956452,-0.497417 -0.05507,-0.07435 -0.116356,-0.146831 -0.165201,-0.223058 -0.08732,-0.136288 -0.157173,-0.303066 -0.218515,-0.444957 -0.09271,-0.214454 -0.18138,-0.429773 -0.261373,-0.646454 -0.06535,-0.224059 -0.137566,-0.4483656 -0.141256,-0.6777466 -0.004,-0.243556 0.07291,-0.478317 0.189764,-0.708359 0.06941,-0.121489 0.155447,-0.287375 0.253182,-0.403302 0.03718,-0.0441 0.06409,-0.100497 0.131812,-0.123867 0.03551,-0.01228 0.09416,0.0176 0.100343,0.04374 0.03465,0.14648 -0.312295,0.280904 -0.230339,0.417938 -0.0979,0.141067 -0.190736,0.283717 -0.29371,0.4232 -0.500342,0.677752 -1.067161,1.3352876 -1.71156,1.9578646 -0.0037,0.0046 -0.101265,-0.03014 -0.09754,-0.0347 z"
       inkscape:connector-curvature="0" />
    <path
       style="opacity:0.95999995;fill:#ffffff;fill-opacity:1;stroke:#a9a9a9;stroke-width:0.25;stroke-miterlimit:4;stroke-dasharray:none;stroke-dashoffset:0;stroke-opacity:1"
       id="path1115-5"
       d="m 31.606287,20.789133 c 0.09023,-0.165104 0.170077,-0.333489 0.264572,-0.497079 0.05774,-0.09996 0.130531,-0.226931 0.21306,-0.318656 0.0192,-0.02135 0.04541,-0.03738 0.06812,-0.05611 0.03149,0.0075 0.0782,-0.0016 0.09441,0.02244 0.0268,0.03951 7.35e-4,0.309184 3.7e-4,0.321909 -0.0015,0.09733 -0.0021,0.194805 0.0044,0.291981 0.01978,0.29134 0.05195,0.427359 0.103168,0.715696 0.05884,0.202178 0.08836,0.366652 0.204577,0.550174 0.04948,0.07814 0.141627,0.188119 0.263748,0.201111 0.119489,0.0127 0.321535,-0.108996 0.389132,-0.140867 0.09848,-0.06701 0.202552,-0.128585 0.295437,-0.201043 0.243363,-0.189848 0.521519,-0.460033 0.726284,-0.674515 0.352756,-0.369495 0.653995,-0.751935 0.952903,-1.15223 0.04985,-0.07726 0.102689,-0.153217 0.149543,-0.231804 0.02248,-0.03775 0.04377,-0.07635 0.05828,-0.116764 0.0015,-0.0042 -0.01459,-0.0094 -0.01453,-0.0052 2.08e-4,0.01983 0.01938,0.03864 0.01513,0.05819 -0.01004,0.04634 -0.03764,0.08876 -0.05647,0.133129 -0.01376,0.08025 -0.02753,0.160501 -0.04132,0.240751 -0.04275,0.476371 0.0019,0.955029 0.142424,1.418207 0.03086,0.101632 0.06528,0.202833 0.109564,0.300884 0.03351,0.0742 0.08211,0.142918 0.123167,0.214377 0.0029,0.0059 -0.09613,0.03993 -0.09899,0.034 l 1.253835,-0.42825 c 0,0 -1.216817,0.505995 -1.253835,0.42825 -0.04757,-0.09992 -0.220386,-0.427203 -0.252989,-0.531288 -0.147961,-0.472368 -0.185509,-0.963116 -0.129726,-1.448642 0.02023,-0.0919 0.04185,-0.469291 0.26518,-0.449827 0.02484,0.002 0.03107,0.03722 0.02893,0.05818 -0.0095,0.09323 -0.164003,0.331303 -0.187455,0.372074 -0.0811,0.114353 -0.157966,0.230909 -0.243289,0.343065 -0.229932,0.302233 -0.439241,0.547133 -0.709605,0.826076 -0.224285,0.231398 -0.486051,0.478512 -0.752757,0.678216 -0.09885,0.07402 -0.208929,0.13667 -0.313394,0.205005 -0.189765,0.08328 -0.292435,0.168303 -0.513942,0.133469 -0.0607,-0.0095 -0.116403,-0.04056 -0.162199,-0.07545 -0.239374,-0.18246 -0.289069,-0.481314 -0.366782,-0.726917 -0.02134,-0.120935 -0.04794,-0.241303 -0.06402,-0.362815 -0.03614,-0.273017 -0.03954,-0.398253 -0.02484,-0.662279 0.0033,-0.06149 0.01144,-0.122752 0.01924,-0.183958 0.0039,-0.02993 0.0011,-0.06168 0.01533,-0.08933 0.0063,-0.01245 0.02731,-0.01421 0.04096,-0.02135 -0.113497,0.103676 -0.179623,0.236908 -0.252734,0.362238 -0.09598,0.16451 -0.183528,0.332417 -0.284247,0.494913 -0.0027,0.0047 -0.08135,-0.02541 -0.07882,-0.0301 z"
       inkscape:connector-curvature="0"
       sodipodi:nodetypes="csccccccccccccccccccccccccsccccccccccccccccsccc" />
  </g>
</svg>
